<?xml version="1.0" encoding="UTF-8" standalone="no"?>
<svg
   width="98.585mm"
   height="31.897mm"
   version="1.1"
   viewBox="0 0 98.585 31.897"
   id="svg112"
   sodipodi:docname="logo-opt.svg"
   inkscape:version="1.2 (dc2aedaf03, 2022-05-15)"
   xmlns:inkscape="http://www.inkscape.org/namespaces/inkscape"
   xmlns:sodipodi="http://sodipodi.sourceforge.net/DTD/sodipodi-0.dtd"
   xmlns="http://www.w3.org/2000/svg"
   xmlns:svg="http://www.w3.org/2000/svg"
   xmlns:rdf="http://www.w3.org/1999/02/22-rdf-syntax-ns#"
   xmlns:cc="http://creativecommons.org/ns#"
   xmlns:dc="http://purl.org/dc/elements/1.1/">
  <defs
     id="defs116" />
  <sodipodi:namedview
     id="namedview114"
     pagecolor="#ffffff"
     bordercolor="#666666"
     borderopacity="1.0"
     inkscape:showpageshadow="2"
     inkscape:pageopacity="0.0"
     inkscape:pagecheckerboard="0"
     inkscape:deskcolor="#d1d1d1"
     inkscape:document-units="mm"
     showgrid="false"
     inkscape:zoom="3.6177749"
     inkscape:cx="170.1322"
     inkscape:cy="60.258034"
     inkscape:window-width="2472"
     inkscape:window-height="1417"
     inkscape:window-x="80"
     inkscape:window-y="-8"
     inkscape:window-maximized="1"
     inkscape:current-layer="svg112" />
  <metadata
     id="metadata2">
    <rdf:RDF>
      <cc:Work
         rdf:about="">
        <dc:format>image/svg+xml</dc:format>
        <dc:type
           rdf:resource="http://purl.org/dc/dcmitype/StillImage" />
        <dc:title />
      </cc:Work>
    </rdf:RDF>
  </metadata>
  <g
     id="g110">
    <circle
       cx="13.059"
       cy="16.474"
       r="12.031"
       fill="#f2f2f2"
       id="circle68" />
    <ellipse
       transform="matrix(.86241 -.5062 .48442 .87484 0 0)"
       cx="3.6382"
       cy="22.261"
       rx="11.121"
       ry="10.856"
       id="ellipse70" />
    <ellipse
       transform="matrix(.89185 -.45234 .3875 .92187 0 0)"
       cx="6.0848"
       cy="23.111"
       rx="10.425"
       ry="9.7502"
       fill="#f2f2f2"
       id="ellipse72" />
    <ellipse
       transform="matrix(.59056 .80699 -.77439 .63271 0 0)"
       cx="25.943"
       cy="-1.4425"
       rx="7.6169"
       ry="9.7007"
       fill="#f2f2f2"
       id="ellipse74" />
    <ellipse
       transform="matrix(.61359 .78963 -.74793 .66378 0 0)"
       cx="24.445"
       cy=".15235"
       rx="8.6534"
       ry="10.199"
       id="ellipse76" />
    <g
       stroke-linecap="round"
       id="g90">
      <path
         d="m25.338 11.045-11.726-8.9628"
         fill="#222"
         stroke="#f2f2f2"
         stroke-width="1.3105"
         id="path78" />
      <circle
         cx="23.31"
         cy="13.659"
         r="3.5755"
         fill="#fff"
         stroke="#fff"
         stroke-width=".74326"
         id="circle80" />
      <g
         id="g88">
        <path
           d="m22.671 16.884-14.694-3.4649"
           fill="#f2f2f2"
           stroke="#f2f2f2"
           stroke-width="1.3105"
           id="path82" />
        <path
           d="m22.904 16.959-14.927-3.5399"
           stroke="#000"
           stroke-width=".47651"
           id="path84" />
        <path
           d="m25.338 11.045-11.726-8.9628"
           stroke="#000"
           stroke-width=".49043"
           id="path86" />
      </g>
    </g>
    <g
       fill="#222"
       id="g100">
      <ellipse
         transform="matrix(.99912 -.041926 -.16271 .98667 0 0)"
         cx="26.934"
         cy="15.976"
         rx="2.3596"
         ry="2.4735"
         id="ellipse92" />
      <ellipse
         transform="matrix(.93303 -.3598 .11575 .99328 0 0)"
         cx="22.988"
         cy="22.814"
         rx="2.7713"
         ry="2.4374"
         id="ellipse94" />
      <ellipse
         transform="matrix(.99203 -.12597 0 1 0 0)"
         cx="23.642"
         cy="16.487"
         rx="3.0731"
         ry="3.2152"
         id="ellipse96" />
      <path
         d="m22.462 13.183-15.4-6.9571"
         stroke="#f2f2f2"
         stroke-linecap="round"
         stroke-width="1.3105"
         id="path98" />
    </g>
    <g
       id="g108">
      <path
         d="m22.462 13.183-15.4-6.9571"
         stroke="#000"
         stroke-linecap="round"
         stroke-width=".50833px"
         id="path102" />
      <ellipse
         cx="23.315"
         cy="13.651"
         rx="3.5189"
         ry="3.5748"
         id="ellipse104" />
      <ellipse
         transform="matrix(.79404 -.60786 .53799 .84295 0 0)"
         cx="12.127"
         cy="24.144"
         rx="3.1196"
         ry="2.5598"
         id="ellipse106" />
    </g>
  </g>
  <g
     aria-label="СЛУЖБА
НАЗЕМНЫХ
СТАНЦИЙ"
     id="text1009"
     style="font-size:7.05556px;line-height:1.25;font-family:Arial;-inkscape-font-specification:Arial;stroke-width:0.264583;fill:#ffffff;fill-opacity:1">
    <path
       d="m 33.803005,7.5774147 0.988743,0.3135039 q -0.227377,0.8268234 -0.757922,1.2298999 -0.5271,0.3996313 -1.340143,0.3996313 -1.005968,0 -1.653646,-0.6855744 -0.647679,-0.6890196 -0.647679,-1.8810234 0,-1.2609058 0.651124,-1.9568155 0.651123,-0.6993548 1.712213,-0.6993548 0.926731,0 1.505508,0.5477705 0.34451,0.3238392 0.516765,0.9301764 L 33.768554,6.0167854 Q 33.678981,5.6240443 33.393038,5.3966678 33.11054,5.1692914 32.704019,5.1692914 q -0.561551,0 -0.912951,0.4030764 -0.347955,0.4030765 -0.347955,1.3056921 0,0.9577371 0.34451,1.3642586 0.344509,0.4065216 0.895725,0.4065216 0.406522,0 0.699355,-0.2583823 0.292833,-0.2583824 0.420302,-0.8130431 z"
       style="font-weight:bold;-inkscape-font-specification:'Arial Bold';fill:#ffffff;fill-opacity:1"
       id="path1065" />
    <path
       d="m 35.852838,4.3838091 h 3.538115 V 9.4343224 H 38.371204 V 5.2381933 h -1.519288 v 2.1566312 q 0,0.9267313 -0.06201,1.2953568 -0.06201,0.3651803 -0.303169,0.5718862 -0.237712,0.2032607 -0.747586,0.2032607 -0.179145,0 -0.651124,-0.034451 V 8.6419499 l 0.227377,0.00345 q 0.320394,0 0.430637,-0.086127 0.110243,-0.086127 0.110243,-0.423747 l -0.0034,-0.8681646 z"
       style="font-weight:bold;-inkscape-font-specification:'Arial Bold';fill:#ffffff;fill-opacity:1"
       id="path1067" />
    <path
       d="m 39.928389,4.3838091 h 1.140327 l 1.178223,2.6217194 1.005969,-2.6217194 h 1.064535 L 42.61212,8.221648 q -0.279053,0.6235626 -0.568441,0.9508469 -0.289389,0.3238392 -0.747587,0.3238392 -0.451307,0 -0.706245,-0.058567 V 8.679846 q 0.217042,0.01378 0.392741,0.01378 0.354846,0 0.50643,-0.1274686 0.155029,-0.1309137 0.296278,-0.5581058 z"
       style="font-weight:bold;-inkscape-font-specification:'Arial Bold';fill:#ffffff;fill-opacity:1"
       id="path1069" />
    <path
       d="m 48.003697,4.3838091 v 2.149741 q 0.254938,-0.020671 0.385851,-0.1894804 0.130914,-0.1688098 0.361736,-0.7717019 0.303168,-0.7889274 0.620117,-1.0059685 0.313504,-0.2135961 1.043865,-0.2135961 0.03445,0 0.148139,-0.00345 v 0.7544764 l -0.148139,-0.00345 q -0.310059,0 -0.454753,0.079237 -0.144694,0.075792 -0.234267,0.2342666 -0.08957,0.1584745 -0.265272,0.6511235 -0.09302,0.2618274 -0.203261,0.4375274 -0.106798,0.1757 -0.382406,0.3307294 0.341065,0.099908 0.561551,0.3927411 0.223931,0.2893882 0.489204,0.8233784 l 0.68902,1.3849293 H 49.416188 L 48.80985,8.1286303 Q 48.799515,8.1010695 48.751284,8.0218323 48.723723,7.9701558 48.62726,7.7841206 48.434335,7.4223853 48.310311,7.3224775 48.186288,7.2225696 48.003697,7.2225696 V 9.4343224 H 47.008064 V 7.2225696 q -0.1757,0 -0.303168,0.096463 -0.127469,0.096463 -0.316949,0.4650882 -0.106798,0.2067058 -0.127469,0.2377117 -0.03101,0.051677 -0.05857,0.106798 L 45.595574,9.4343224 H 44.39668 L 45.0857,8.0493931 Q 45.340637,7.5360735 45.564568,7.23635 45.791945,6.9331814 46.1399,6.8332736 45.864292,6.6782442 45.754049,6.5059893 45.647251,6.3302893 45.550788,6.0650168 45.378533,5.5827031 45.28896,5.4207835 45.202833,5.2588639 45.054694,5.1796267 44.91,5.1003894 44.57927,5.1003894 q -0.04134,0 -0.130913,0.00345 V 4.3493581 q 0.113688,0.00345 0.148139,0.00345 0.740696,0 1.0542,0.2170412 0.310059,0.2204862 0.609782,1.0025234 0.234267,0.6063372 0.361735,0.775147 0.130914,0.1653647 0.385851,0.1860353 v -2.149741 z"
       style="font-weight:bold;-inkscape-font-specification:'Arial Bold';fill:#ffffff;fill-opacity:1"
       id="path1071" />
    <path
       d="m 51.228309,4.3838091 h 3.775827 v 0.847494 h -2.756078 v 1.1713333 h 1.364259 q 0.564996,0 0.937066,0.1378039 0.372071,0.1378039 0.633898,0.5098744 0.265273,0.3720706 0.265273,0.8716098 0,0.5133195 -0.265273,0.8784999 -0.265272,0.3651803 -0.606337,0.4995391 -0.33762,0.1343589 -0.964627,0.1343589 h -2.384008 z m 1.019749,4.2030192 h 0.992188 q 0.475423,0 0.668349,-0.044786 0.192925,-0.048231 0.334174,-0.2135961 0.144695,-0.1653647 0.144695,-0.4065215 0,-0.3514 -0.251493,-0.5098745 -0.248047,-0.1619196 -0.850939,-0.1619196 h -1.036974 z"
       style="font-weight:bold;-inkscape-font-specification:'Arial Bold';fill:#ffffff;fill-opacity:1"
       id="path1073" />
    <path
       d="M 60.564525,9.4343224 H 59.455203 L 59.014231,8.2871048 h -2.018827 l -0.416857,1.1472176 h -1.081761 l 1.967151,-5.0505133 h 1.078315 z M 58.686947,7.4361657 57.991037,5.5620325 57.308908,7.4361657 Z"
       style="font-weight:bold;-inkscape-font-specification:'Arial Bold';fill:#ffffff;fill-opacity:1"
       id="path1075" />
    <path
       d="m 30.574948,18.253772 v -5.050513 h 1.019749 v 1.987822 h 1.998157 v -1.987822 h 1.019749 v 5.050513 h -1.019749 v -2.208307 h -1.998157 v 2.208307 z"
       style="font-weight:bold;-inkscape-font-specification:'Arial Bold';fill:#ffffff;fill-opacity:1"
       id="path1077" />
    <path
       d="m 40.221222,18.253772 h -1.109321 l -0.440973,-1.147217 h -2.018827 l -0.416857,1.147217 h -1.081761 l 1.967151,-5.050513 h 1.078316 z m -1.877578,-1.998156 -0.69591,-1.874133 -0.682129,1.874133 z"
       style="font-weight:bold;-inkscape-font-specification:'Arial Bold';fill:#ffffff;fill-opacity:1"
       id="path1079" />
    <path
       d="M 41.482128,14.581298 40.48994,14.350477 q 0.320394,-1.233345 1.822457,-1.233345 0.888835,0 1.340143,0.392741 0.454753,0.389296 0.454753,0.916396 0,0.361735 -0.206706,0.654569 -0.206706,0.289388 -0.620118,0.509874 0.502984,0.172255 0.754476,0.489204 0.251493,0.313504 0.251493,0.775147 0,0.664904 -0.489204,1.07487 -0.485759,0.409967 -1.457277,0.409967 -0.792372,0 -1.25057,-0.261827 -0.458198,-0.265273 -0.68902,-0.988744 l 0.933622,-0.306613 q 0.144694,0.454753 0.382406,0.589111 0.241157,0.134359 0.592557,0.134359 0.482313,0 0.702799,-0.206706 0.220487,-0.210151 0.220487,-0.478868 0,-0.310059 -0.251492,-0.499539 -0.248047,-0.189481 -0.751032,-0.189481 h -0.230821 v -0.761366 h 0.117133 q 0.468533,0 0.71658,-0.210151 0.248047,-0.210151 0.248047,-0.558106 0,-0.275608 -0.20326,-0.465088 -0.199816,-0.189481 -0.575332,-0.189481 -0.640788,0 -0.819933,0.633898 z"
       style="font-weight:bold;-inkscape-font-specification:'Arial Bold';fill:#ffffff;fill-opacity:1"
       id="path1081" />
    <path
       d="m 45.182163,18.253772 v -5.050513 h 3.744821 v 0.854384 H 46.201912 V 15.1773 h 2.535592 v 0.850939 h -2.535592 v 1.374594 h 2.821535 v 0.850939 z"
       style="font-weight:bold;-inkscape-font-specification:'Arial Bold';fill:#ffffff;fill-opacity:1"
       id="path1083" />
    <path
       d="m 49.874387,18.253772 v -5.050513 h 1.526178 l 0.916396,3.445098 0.906061,-3.445098 h 1.529623 v 5.050513 H 53.805243 V 14.27813 L 52.80272,18.253772 H 51.820867 L 50.821788,14.27813 v 3.975642 z"
       style="font-weight:bold;-inkscape-font-specification:'Arial Bold';fill:#ffffff;fill-opacity:1"
       id="path1085" />
    <path
       d="m 55.768949,18.253772 v -5.050513 h 1.019748 v 1.987822 h 1.998157 v -1.987822 h 1.019749 v 5.050513 h -1.019749 v -2.208307 h -1.998157 v 2.208307 z"
       style="font-weight:bold;-inkscape-font-specification:'Arial Bold';fill:#ffffff;fill-opacity:1"
       id="path1087" />
    <path
       d="m 60.888363,13.203259 h 1.019749 v 2.018828 h 1.364259 q 0.537435,0 0.923286,0.148139 0.389296,0.144694 0.647678,0.523655 0.258383,0.375515 0.258383,0.864719 0,0.51332 -0.268718,0.88539 -0.268718,0.368626 -0.599447,0.489204 -0.327284,0.120578 -0.961182,0.120578 h -2.384008 z m 1.019749,4.203019 h 0.995633 q 0.475424,0 0.661459,-0.04479 0.18948,-0.04823 0.334174,-0.213596 0.14814,-0.165365 0.14814,-0.403076 0,-0.33762 -0.241157,-0.50643 -0.237712,-0.168809 -0.861275,-0.168809 h -1.036974 z m 3.782717,-4.203019 h 1.019749 v 5.050513 h -1.019749 z"
       style="font-weight:bold;-inkscape-font-specification:'Arial Bold';fill:#ffffff;fill-opacity:1"
       id="path1089" />
    <path
       d="m 67.254904,18.253772 1.725994,-2.635499 -1.564075,-2.415014 h 1.192004 l 1.012859,1.622641 0.992188,-1.622641 h 1.181669 l -1.570965,2.45291 1.725994,2.597603 h -1.2299 l -1.119657,-1.746664 -1.123102,1.746664 z"
       style="font-weight:bold;-inkscape-font-specification:'Arial Bold';fill:#ffffff;fill-opacity:1"
       id="path1091" />
    <path
       d="m 33.803005,25.216315 0.988743,0.313504 q -0.227377,0.826823 -0.757922,1.2299 -0.5271,0.399631 -1.340143,0.399631 -1.005968,0 -1.653646,-0.685574 -0.647679,-0.68902 -0.647679,-1.881024 0,-1.260905 0.651124,-1.956815 0.651123,-0.699355 1.712213,-0.699355 0.926731,0 1.505508,0.54777 0.34451,0.32384 0.516765,0.930177 l -1.009414,0.241157 q -0.08957,-0.392741 -0.375516,-0.620118 -0.282498,-0.227376 -0.689019,-0.227376 -0.561551,0 -0.912951,0.403076 -0.347955,0.403077 -0.347955,1.305692 0,0.957737 0.34451,1.364259 0.344509,0.406521 0.895725,0.406521 0.406522,0 0.699355,-0.258382 0.292833,-0.258382 0.420302,-0.813043 z"
       style="font-weight:bold;-inkscape-font-specification:'Arial Bold';fill:#ffffff;fill-opacity:1"
       id="path1093" />
    <path
       d="m 36.627985,27.073223 v -4.196129 h -1.498617 v -0.854385 h 4.013538 v 0.854385 h -1.495172 v 4.196129 z"
       style="font-weight:bold;-inkscape-font-specification:'Arial Bold';fill:#ffffff;fill-opacity:1"
       id="path1095" />
    <path
       d="M 43.910921,27.073223 H 42.8016 L 42.360627,25.926005 H 40.3418 l -0.416857,1.147218 h -1.08176 l 1.96715,-5.050514 h 1.078316 z m -1.877578,-1.998157 -0.69591,-1.874133 -0.682129,1.874133 z"
       style="font-weight:bold;-inkscape-font-specification:'Arial Bold';fill:#ffffff;fill-opacity:1"
       id="path1097" />
    <path
       d="m 44.455247,27.073223 v -5.050514 h 1.019749 v 1.987822 h 1.998157 v -1.987822 h 1.019748 v 5.050514 h -1.019748 v -2.208308 h -1.998157 v 2.208308 z"
       style="font-weight:bold;-inkscape-font-specification:'Arial Bold';fill:#ffffff;fill-opacity:1"
       id="path1099" />
    <path
       d="m 49.564328,22.022709 h 1.019749 v 4.20302 h 1.977486 v -4.20302 h 1.019749 v 4.20302 h 0.420302 v 1.949925 H 53.15412 v -1.102431 h -3.589792 z"
       style="font-weight:bold;-inkscape-font-specification:'Arial Bold';fill:#ffffff;fill-opacity:1"
       id="path1101" />
    <path
       d="m 54.714749,22.022709 h 0.954292 v 3.362416 l 2.046388,-3.362416 h 1.016304 v 5.050514 h -0.954292 v -3.296959 l -2.042943,3.296959 h -1.019749 z"
       style="font-weight:bold;-inkscape-font-specification:'Arial Bold';fill:#ffffff;fill-opacity:1"
       id="path1103" />
    <path
       d="m 59.785933,22.022709 h 0.954292 v 3.362416 l 2.046388,-3.362416 h 1.016304 v 5.050514 h -0.954292 v -3.296959 l -2.042943,3.296959 h -1.019749 z m 2.618274,-1.25746 h 0.471979 q -0.04134,0.468533 -0.33073,0.737251 -0.285943,0.265272 -0.744141,0.265272 -0.458198,0 -0.747586,-0.265272 -0.285943,-0.268718 -0.327284,-0.737251 h 0.471978 q 0.02412,0.244602 0.172255,0.37207 0.148139,0.124024 0.430637,0.124024 0.282498,0 0.430637,-0.124024 0.148139,-0.127468 0.172255,-0.37207 z"
       style="font-weight:bold;-inkscape-font-specification:'Arial Bold';fill:#ffffff;fill-opacity:1"
       id="path1105" />
  </g>
</svg>
